# xmcd
#
# Track frame offsets:
# 150
# 27170
# 48860
# 69142
# 90077
# 107837
# 124592
# 143917
# 174345
# 195010
# 221765
# 241377
# 260195
# 283340
# 304497
#
# Disc length: 4417 seconds
#
#
# Revision: 0
# Processed by: cddbd v1.4PL0 Copyright (c) Steve Scherf et al.
# Submitted via: FreeRIP 2.11 
#
DISCID=d0113f0f
DTITLE=Chemical Generation - Disk 2 DJ Energy and Sharkey
DYEAR=1900
DGENRE=Harcore
TTITLE0=Charly T - Intoxication
TTITLE1=Energy and Blackout - Crazy Styles
TTITLE2=Energy - Warped Reality
TTITLE3=Brisk and Trixxy - Back To The Top
TTITLE4=Druid and Energy - Future Dimensions
TTITLE5=Energy - The Hustler
TTITLE6=Sharkey and Druid - Terranova
TTITLE7=Energy - Waves Of Desire
TTITLE8=DJ Fury - De Sensitize 98
TTITLE9=Sharkey - The Awakening
TTITLE10=Eclipse and Force Mass Motion - Point Zero
TTITLE11=Fury - Lemonade Ray Gun
TTITLE12=Sharkey - Product Of Society
TTITLE13=Pre Dawn Chaos - Acid Frenzy
TTITLE14=Helix - Now Control
EXTD=
EXTT0=
EXTT1=
EXTT2=
EXTT3=
EXTT4=
EXTT5=
EXTT6=
EXTT7=
EXTT8=
EXTT9=
EXTT10=
EXTT11=
EXTT12=
EXTT13=
EXTT14=
PLAYORDER=
